<mxfile host="app.diagrams.net" modified="2024-06-05T09:45:40.261Z" agent="Mozilla/5.0 (Windows NT 10.0; Win64; x64) AppleWebKit/537.36 (KHTML, like Gecko) Chrome/125.0.0.0 Safari/537.36" etag="yTdN3O5b-COTh44xt00-" version="24.4.4" type="google">
  <diagram name="Page-1" id="_aMn8UAj_8BvyyBAVJBJ">
    <mxGraphModel grid="1" page="1" gridSize="10" guides="1" tooltips="1" connect="1" arrows="1" fold="1" pageScale="1" pageWidth="827" pageHeight="1169" math="0" shadow="0">
      <root>
        <mxCell id="0" />
        <mxCell id="1" parent="0" />
        <mxCell id="LyirubUt6gGEpComlYB7-2" value="Carte" style="swimlane;fontStyle=1;align=center;verticalAlign=top;childLayout=stackLayout;horizontal=1;startSize=26;horizontalStack=0;resizeParent=1;resizeParentMax=0;resizeLast=0;collapsible=1;marginBottom=0;whiteSpace=wrap;html=1;fillColor=#dae8fc;strokeColor=#6c8ebf;" vertex="1" parent="1">
          <mxGeometry x="-643.5" y="270" width="230" height="160" as="geometry" />
        </mxCell>
        <mxCell id="LyirubUt6gGEpComlYB7-3" value="-valeur : int&lt;div&gt;-symbole : char&lt;/div&gt;" style="text;strokeColor=none;fillColor=none;align=left;verticalAlign=top;spacingLeft=4;spacingRight=4;overflow=hidden;rotatable=0;points=[[0,0.5],[1,0.5]];portConstraint=eastwest;whiteSpace=wrap;html=1;" vertex="1" parent="LyirubUt6gGEpComlYB7-2">
          <mxGeometry y="26" width="230" height="44" as="geometry" />
        </mxCell>
        <mxCell id="LyirubUt6gGEpComlYB7-4" value="" style="line;strokeWidth=1;fillColor=none;align=left;verticalAlign=middle;spacingTop=-1;spacingLeft=3;spacingRight=3;rotatable=0;labelPosition=right;points=[];portConstraint=eastwest;strokeColor=inherit;" vertex="1" parent="LyirubUt6gGEpComlYB7-2">
          <mxGeometry y="70" width="230" height="8" as="geometry" />
        </mxCell>
        <mxCell id="LyirubUt6gGEpComlYB7-5" value="+Carte(valeur : int, symbole : char)&lt;div&gt;+get_valeur() : int&lt;/div&gt;&lt;div&gt;+get_symbole() : char&lt;/div&gt;&lt;div&gt;+set_valeur(valeur : int) : int&lt;/div&gt;&lt;div&gt;+afficher() : void&lt;/div&gt;" style="text;strokeColor=none;fillColor=none;align=left;verticalAlign=top;spacingLeft=4;spacingRight=4;overflow=hidden;rotatable=0;points=[[0,0.5],[1,0.5]];portConstraint=eastwest;whiteSpace=wrap;html=1;" vertex="1" parent="LyirubUt6gGEpComlYB7-2">
          <mxGeometry y="78" width="230" height="82" as="geometry" />
        </mxCell>
        <mxCell id="LyirubUt6gGEpComlYB7-6" value="Groupier" style="swimlane;fontStyle=1;align=center;verticalAlign=top;childLayout=stackLayout;horizontal=1;startSize=26;horizontalStack=0;resizeParent=1;resizeParentMax=0;resizeLast=0;collapsible=1;marginBottom=0;whiteSpace=wrap;html=1;fillColor=#d5e8d4;strokeColor=#82b366;" vertex="1" parent="1">
          <mxGeometry x="180" y="360" width="420" height="80" as="geometry" />
        </mxCell>
        <mxCell id="LyirubUt6gGEpComlYB7-8" value="" style="line;strokeWidth=1;fillColor=none;align=left;verticalAlign=middle;spacingTop=-1;spacingLeft=3;spacingRight=3;rotatable=0;labelPosition=right;points=[];portConstraint=eastwest;strokeColor=inherit;" vertex="1" parent="LyirubUt6gGEpComlYB7-6">
          <mxGeometry y="26" width="420" height="8" as="geometry" />
        </mxCell>
        <mxCell id="LyirubUt6gGEpComlYB7-9" value="+Groupier()&lt;div&gt;+distribuer_cartes(joueur : Joueur, nombre_de_cartes : int) : void&lt;/div&gt;" style="text;strokeColor=none;fillColor=none;align=left;verticalAlign=top;spacingLeft=4;spacingRight=4;overflow=hidden;rotatable=0;points=[[0,0.5],[1,0.5]];portConstraint=eastwest;whiteSpace=wrap;html=1;" vertex="1" parent="LyirubUt6gGEpComlYB7-6">
          <mxGeometry y="34" width="420" height="46" as="geometry" />
        </mxCell>
        <mxCell id="LyirubUt6gGEpComlYB7-10" value="Jeu" style="swimlane;fontStyle=1;align=center;verticalAlign=top;childLayout=stackLayout;horizontal=1;startSize=26;horizontalStack=0;resizeParent=1;resizeParentMax=0;resizeLast=0;collapsible=1;marginBottom=0;whiteSpace=wrap;html=1;fillColor=#e1d5e7;strokeColor=#9673a6;" vertex="1" parent="1">
          <mxGeometry x="330" y="760" width="460" height="90" as="geometry" />
        </mxCell>
        <mxCell id="LyirubUt6gGEpComlYB7-12" value="" style="line;strokeWidth=1;fillColor=none;align=left;verticalAlign=middle;spacingTop=-1;spacingLeft=3;spacingRight=3;rotatable=0;labelPosition=right;points=[];portConstraint=eastwest;strokeColor=inherit;" vertex="1" parent="LyirubUt6gGEpComlYB7-10">
          <mxGeometry y="26" width="460" height="8" as="geometry" />
        </mxCell>
        <mxCell id="LyirubUt6gGEpComlYB7-13" value="+deroulement_partie(joueur : Joueur, groupier : Groupier) : void&lt;div&gt;+deroulement_split(joueur :&amp;nbsp; Joueur, groupier : Groupier, joueur_split : Joueur) : void&lt;/div&gt;&lt;div&gt;+initialisation() : void&lt;/div&gt;" style="text;strokeColor=none;fillColor=none;align=left;verticalAlign=top;spacingLeft=4;spacingRight=4;overflow=hidden;rotatable=0;points=[[0,0.5],[1,0.5]];portConstraint=eastwest;whiteSpace=wrap;html=1;" vertex="1" parent="LyirubUt6gGEpComlYB7-10">
          <mxGeometry y="34" width="460" height="56" as="geometry" />
        </mxCell>
        <mxCell id="LyirubUt6gGEpComlYB7-18" value="Joueur" style="swimlane;fontStyle=1;align=center;verticalAlign=top;childLayout=stackLayout;horizontal=1;startSize=26;horizontalStack=0;resizeParent=1;resizeParentMax=0;resizeLast=0;collapsible=1;marginBottom=0;whiteSpace=wrap;html=1;fillColor=#ffe6cc;strokeColor=#d79b00;" vertex="1" parent="1">
          <mxGeometry x="-150" y="210" width="260" height="420" as="geometry" />
        </mxCell>
        <mxCell id="LyirubUt6gGEpComlYB7-19" value="-main[2] : vector&amp;lt;Cartes&amp;gt;&lt;div&gt;-nom : char&lt;/div&gt;&lt;div&gt;-main_index : int&lt;/div&gt;&lt;div&gt;-mise : int&lt;/div&gt;&lt;div&gt;-mise_depart : int&lt;/div&gt;" style="text;strokeColor=none;fillColor=none;align=left;verticalAlign=top;spacingLeft=4;spacingRight=4;overflow=hidden;rotatable=0;points=[[0,0.5],[1,0.5]];portConstraint=eastwest;whiteSpace=wrap;html=1;" vertex="1" parent="LyirubUt6gGEpComlYB7-18">
          <mxGeometry y="26" width="260" height="84" as="geometry" />
        </mxCell>
        <mxCell id="LyirubUt6gGEpComlYB7-20" value="" style="line;strokeWidth=1;fillColor=none;align=left;verticalAlign=middle;spacingTop=-1;spacingLeft=3;spacingRight=3;rotatable=0;labelPosition=right;points=[];portConstraint=eastwest;strokeColor=inherit;" vertex="1" parent="LyirubUt6gGEpComlYB7-18">
          <mxGeometry y="110" width="260" height="8" as="geometry" />
        </mxCell>
        <mxCell id="LyirubUt6gGEpComlYB7-21" value="+Joueur()&lt;div&gt;+ajouter_carte(carte : Carte) : void&lt;/div&gt;&lt;div&gt;+ajouter_carte(carte : Carte, index : int) : void&lt;/div&gt;&lt;div&gt;+afficher_main() : void&lt;/div&gt;&lt;div&gt;+afficher_main(index : int) : void&lt;/div&gt;&lt;div&gt;+get_score() : int&lt;/div&gt;&lt;div&gt;+get_score(index : int) :int&lt;/div&gt;&lt;div&gt;+set_score(score : int, index : int) : void&lt;/div&gt;&lt;div&gt;+get_nom : char&lt;/div&gt;&lt;div&gt;+afficher_main_groupier() : void&lt;/div&gt;&lt;div&gt;+peut_split() : bool&lt;/div&gt;&lt;div&gt;+set_main_index() : void&lt;/div&gt;&lt;div&gt;+get_mise() : int&lt;/div&gt;&lt;div&gt;+get_main_index() :int&lt;/div&gt;&lt;div&gt;+set_mise(mise : int) : void&lt;/div&gt;&lt;div&gt;+get_mise_depart() : int&lt;/div&gt;&lt;div&gt;+set_mise_depart(rajout : int) : void&lt;/div&gt;&lt;div&gt;+set_mise_departJeu(perte : int) : void&lt;/div&gt;&lt;div&gt;+vider_main() : void&lt;/div&gt;&lt;div&gt;+split() : Joueur&lt;/div&gt;" style="text;strokeColor=none;fillColor=none;align=left;verticalAlign=top;spacingLeft=4;spacingRight=4;overflow=hidden;rotatable=0;points=[[0,0.5],[1,0.5]];portConstraint=eastwest;whiteSpace=wrap;html=1;" vertex="1" parent="LyirubUt6gGEpComlYB7-18">
          <mxGeometry y="118" width="260" height="302" as="geometry" />
        </mxCell>
        <mxCell id="LyirubUt6gGEpComlYB7-22" value="Regle" style="swimlane;fontStyle=1;align=center;verticalAlign=top;childLayout=stackLayout;horizontal=1;startSize=26;horizontalStack=0;resizeParent=1;resizeParentMax=0;resizeLast=0;collapsible=1;marginBottom=0;whiteSpace=wrap;html=1;fillColor=#f8cecc;strokeColor=#b85450;" vertex="1" parent="1">
          <mxGeometry x="-200" y="720" width="440" height="170" as="geometry" />
        </mxCell>
        <mxCell id="LyirubUt6gGEpComlYB7-24" value="" style="line;strokeWidth=1;fillColor=none;align=left;verticalAlign=middle;spacingTop=-1;spacingLeft=3;spacingRight=3;rotatable=0;labelPosition=right;points=[];portConstraint=eastwest;strokeColor=inherit;" vertex="1" parent="LyirubUt6gGEpComlYB7-22">
          <mxGeometry y="26" width="440" height="8" as="geometry" />
        </mxCell>
        <mxCell id="LyirubUt6gGEpComlYB7-25" value="+joueur_bust(joueur : Joueur, groupier :&amp;nbsp; Groupier) : void&lt;div&gt;+tour_groupier(groupier : Groupier, joueur : Joueur) : void&lt;/div&gt;&lt;div&gt;+groupier_bust(&lt;span style=&quot;background-color: initial;&quot;&gt;groupier : Groupier, joueur : Joueur) : void&lt;/span&gt;&lt;/div&gt;&lt;div&gt;&lt;span style=&quot;background-color: initial;&quot;&gt;+Gagnant(&lt;/span&gt;&lt;span style=&quot;background-color: initial;&quot;&gt;groupier : Groupier, joueur : Joueur) : void&lt;/span&gt;&lt;/div&gt;&lt;div&gt;&lt;span style=&quot;background-color: initial;&quot;&gt;+rejouer(&lt;/span&gt;&lt;span style=&quot;background-color: initial;&quot;&gt;groupier : Groupier, joueur : Joueur) : void&lt;/span&gt;&lt;/div&gt;&lt;div&gt;&lt;span style=&quot;background-color: initial;&quot;&gt;+main1gagnant(&lt;/span&gt;&lt;span style=&quot;background-color: initial;&quot;&gt;groupier : Groupier, joueur : Joueur) : void&lt;/span&gt;&lt;/div&gt;&lt;div&gt;&lt;span style=&quot;background-color: initial;&quot;&gt;+main2gagnant(&lt;/span&gt;&lt;span style=&quot;background-color: initial;&quot;&gt;groupier : Groupier, joueur : Joueur, joueur_split : Joueur) : void&lt;/span&gt;&lt;/div&gt;&lt;div&gt;&lt;span style=&quot;background-color: initial;&quot;&gt;+misevalable(joueur : Joueur) : void&lt;/span&gt;&lt;/div&gt;" style="text;strokeColor=none;fillColor=none;align=left;verticalAlign=top;spacingLeft=4;spacingRight=4;overflow=hidden;rotatable=0;points=[[0,0.5],[1,0.5]];portConstraint=eastwest;whiteSpace=wrap;html=1;" vertex="1" parent="LyirubUt6gGEpComlYB7-22">
          <mxGeometry y="34" width="440" height="136" as="geometry" />
        </mxCell>
        <mxCell id="uY5fngIF1_JkBCDy1Up1-51" style="edgeStyle=orthogonalEdgeStyle;rounded=0;orthogonalLoop=1;jettySize=auto;html=1;entryX=0;entryY=0.5;entryDx=0;entryDy=0;" edge="1" parent="1" source="uY5fngIF1_JkBCDy1Up1-1" target="LyirubUt6gGEpComlYB7-3">
          <mxGeometry relative="1" as="geometry">
            <Array as="points">
              <mxPoint x="-720" y="280" />
              <mxPoint x="-720" y="318" />
            </Array>
          </mxGeometry>
        </mxCell>
        <mxCell id="uY5fngIF1_JkBCDy1Up1-1" value="As" style="swimlane;fontStyle=1;align=center;verticalAlign=top;childLayout=stackLayout;horizontal=1;startSize=26;horizontalStack=0;resizeParent=1;resizeParentMax=0;resizeLast=0;collapsible=1;marginBottom=0;whiteSpace=wrap;html=1;fillColor=#d5e8d4;strokeColor=#82b366;" vertex="1" parent="1">
          <mxGeometry x="-960" y="250" width="160" height="60" as="geometry" />
        </mxCell>
        <mxCell id="uY5fngIF1_JkBCDy1Up1-3" value="" style="line;strokeWidth=1;fillColor=none;align=left;verticalAlign=middle;spacingTop=-1;spacingLeft=3;spacingRight=3;rotatable=0;labelPosition=right;points=[];portConstraint=eastwest;strokeColor=inherit;" vertex="1" parent="uY5fngIF1_JkBCDy1Up1-1">
          <mxGeometry y="26" width="160" height="8" as="geometry" />
        </mxCell>
        <mxCell id="uY5fngIF1_JkBCDy1Up1-4" value="+As()" style="text;strokeColor=none;fillColor=none;align=left;verticalAlign=top;spacingLeft=4;spacingRight=4;overflow=hidden;rotatable=0;points=[[0,0.5],[1,0.5]];portConstraint=eastwest;whiteSpace=wrap;html=1;" vertex="1" parent="uY5fngIF1_JkBCDy1Up1-1">
          <mxGeometry y="34" width="160" height="26" as="geometry" />
        </mxCell>
        <mxCell id="uY5fngIF1_JkBCDy1Up1-50" style="edgeStyle=orthogonalEdgeStyle;rounded=0;orthogonalLoop=1;jettySize=auto;html=1;entryX=0;entryY=0.5;entryDx=0;entryDy=0;" edge="1" parent="1" source="uY5fngIF1_JkBCDy1Up1-8" target="LyirubUt6gGEpComlYB7-5">
          <mxGeometry relative="1" as="geometry" />
        </mxCell>
        <mxCell id="uY5fngIF1_JkBCDy1Up1-8" value="Deux" style="swimlane;fontStyle=1;align=center;verticalAlign=top;childLayout=stackLayout;horizontal=1;startSize=26;horizontalStack=0;resizeParent=1;resizeParentMax=0;resizeLast=0;collapsible=1;marginBottom=0;whiteSpace=wrap;html=1;fillColor=#d5e8d4;strokeColor=#82b366;" vertex="1" parent="1">
          <mxGeometry x="-960" y="330" width="160" height="60" as="geometry" />
        </mxCell>
        <mxCell id="uY5fngIF1_JkBCDy1Up1-9" value="" style="line;strokeWidth=1;fillColor=none;align=left;verticalAlign=middle;spacingTop=-1;spacingLeft=3;spacingRight=3;rotatable=0;labelPosition=right;points=[];portConstraint=eastwest;strokeColor=inherit;" vertex="1" parent="uY5fngIF1_JkBCDy1Up1-8">
          <mxGeometry y="26" width="160" height="8" as="geometry" />
        </mxCell>
        <mxCell id="uY5fngIF1_JkBCDy1Up1-10" value="+Deux()" style="text;strokeColor=none;fillColor=none;align=left;verticalAlign=top;spacingLeft=4;spacingRight=4;overflow=hidden;rotatable=0;points=[[0,0.5],[1,0.5]];portConstraint=eastwest;whiteSpace=wrap;html=1;" vertex="1" parent="uY5fngIF1_JkBCDy1Up1-8">
          <mxGeometry y="34" width="160" height="26" as="geometry" />
        </mxCell>
        <mxCell id="uY5fngIF1_JkBCDy1Up1-49" style="edgeStyle=orthogonalEdgeStyle;rounded=0;orthogonalLoop=1;jettySize=auto;html=1;entryX=0;entryY=0.5;entryDx=0;entryDy=0;" edge="1" parent="1" source="uY5fngIF1_JkBCDy1Up1-11" target="LyirubUt6gGEpComlYB7-5">
          <mxGeometry relative="1" as="geometry" />
        </mxCell>
        <mxCell id="uY5fngIF1_JkBCDy1Up1-11" value="Trois" style="swimlane;fontStyle=1;align=center;verticalAlign=top;childLayout=stackLayout;horizontal=1;startSize=26;horizontalStack=0;resizeParent=1;resizeParentMax=0;resizeLast=0;collapsible=1;marginBottom=0;whiteSpace=wrap;html=1;fillColor=#d5e8d4;strokeColor=#82b366;" vertex="1" parent="1">
          <mxGeometry x="-960" y="420" width="160" height="60" as="geometry" />
        </mxCell>
        <mxCell id="uY5fngIF1_JkBCDy1Up1-12" value="" style="line;strokeWidth=1;fillColor=none;align=left;verticalAlign=middle;spacingTop=-1;spacingLeft=3;spacingRight=3;rotatable=0;labelPosition=right;points=[];portConstraint=eastwest;strokeColor=inherit;" vertex="1" parent="uY5fngIF1_JkBCDy1Up1-11">
          <mxGeometry y="26" width="160" height="8" as="geometry" />
        </mxCell>
        <mxCell id="uY5fngIF1_JkBCDy1Up1-13" value="+Trois()" style="text;strokeColor=none;fillColor=none;align=left;verticalAlign=top;spacingLeft=4;spacingRight=4;overflow=hidden;rotatable=0;points=[[0,0.5],[1,0.5]];portConstraint=eastwest;whiteSpace=wrap;html=1;" vertex="1" parent="uY5fngIF1_JkBCDy1Up1-11">
          <mxGeometry y="34" width="160" height="26" as="geometry" />
        </mxCell>
        <mxCell id="uY5fngIF1_JkBCDy1Up1-60" style="edgeStyle=orthogonalEdgeStyle;rounded=0;orthogonalLoop=1;jettySize=auto;html=1;entryX=0;entryY=0.5;entryDx=0;entryDy=0;" edge="1" parent="1" source="uY5fngIF1_JkBCDy1Up1-14" target="LyirubUt6gGEpComlYB7-5">
          <mxGeometry relative="1" as="geometry">
            <Array as="points">
              <mxPoint x="-770" y="540" />
              <mxPoint x="-770" y="450" />
              <mxPoint x="-720" y="450" />
              <mxPoint x="-720" y="389" />
            </Array>
          </mxGeometry>
        </mxCell>
        <mxCell id="uY5fngIF1_JkBCDy1Up1-14" value="Quatre" style="swimlane;fontStyle=1;align=center;verticalAlign=top;childLayout=stackLayout;horizontal=1;startSize=26;horizontalStack=0;resizeParent=1;resizeParentMax=0;resizeLast=0;collapsible=1;marginBottom=0;whiteSpace=wrap;html=1;fillColor=#d5e8d4;strokeColor=#82b366;" vertex="1" parent="1">
          <mxGeometry x="-960" y="510" width="160" height="60" as="geometry" />
        </mxCell>
        <mxCell id="uY5fngIF1_JkBCDy1Up1-15" value="" style="line;strokeWidth=1;fillColor=none;align=left;verticalAlign=middle;spacingTop=-1;spacingLeft=3;spacingRight=3;rotatable=0;labelPosition=right;points=[];portConstraint=eastwest;strokeColor=inherit;" vertex="1" parent="uY5fngIF1_JkBCDy1Up1-14">
          <mxGeometry y="26" width="160" height="8" as="geometry" />
        </mxCell>
        <mxCell id="uY5fngIF1_JkBCDy1Up1-16" value="+Quatre()" style="text;strokeColor=none;fillColor=none;align=left;verticalAlign=top;spacingLeft=4;spacingRight=4;overflow=hidden;rotatable=0;points=[[0,0.5],[1,0.5]];portConstraint=eastwest;whiteSpace=wrap;html=1;" vertex="1" parent="uY5fngIF1_JkBCDy1Up1-14">
          <mxGeometry y="34" width="160" height="26" as="geometry" />
        </mxCell>
        <mxCell id="uY5fngIF1_JkBCDy1Up1-47" style="edgeStyle=orthogonalEdgeStyle;rounded=0;orthogonalLoop=1;jettySize=auto;html=1;entryX=0;entryY=0.5;entryDx=0;entryDy=0;" edge="1" parent="1" source="uY5fngIF1_JkBCDy1Up1-17" target="LyirubUt6gGEpComlYB7-5">
          <mxGeometry relative="1" as="geometry" />
        </mxCell>
        <mxCell id="uY5fngIF1_JkBCDy1Up1-17" value="Cinq" style="swimlane;fontStyle=1;align=center;verticalAlign=top;childLayout=stackLayout;horizontal=1;startSize=26;horizontalStack=0;resizeParent=1;resizeParentMax=0;resizeLast=0;collapsible=1;marginBottom=0;whiteSpace=wrap;html=1;fillColor=#d5e8d4;strokeColor=#82b366;" vertex="1" parent="1">
          <mxGeometry x="-750" y="510" width="160" height="60" as="geometry" />
        </mxCell>
        <mxCell id="uY5fngIF1_JkBCDy1Up1-18" value="" style="line;strokeWidth=1;fillColor=none;align=left;verticalAlign=middle;spacingTop=-1;spacingLeft=3;spacingRight=3;rotatable=0;labelPosition=right;points=[];portConstraint=eastwest;strokeColor=inherit;" vertex="1" parent="uY5fngIF1_JkBCDy1Up1-17">
          <mxGeometry y="26" width="160" height="8" as="geometry" />
        </mxCell>
        <mxCell id="uY5fngIF1_JkBCDy1Up1-19" value="+Cinq()" style="text;strokeColor=none;fillColor=none;align=left;verticalAlign=top;spacingLeft=4;spacingRight=4;overflow=hidden;rotatable=0;points=[[0,0.5],[1,0.5]];portConstraint=eastwest;whiteSpace=wrap;html=1;" vertex="1" parent="uY5fngIF1_JkBCDy1Up1-17">
          <mxGeometry y="34" width="160" height="26" as="geometry" />
        </mxCell>
        <mxCell id="uY5fngIF1_JkBCDy1Up1-20" value="Six" style="swimlane;fontStyle=1;align=center;verticalAlign=top;childLayout=stackLayout;horizontal=1;startSize=26;horizontalStack=0;resizeParent=1;resizeParentMax=0;resizeLast=0;collapsible=1;marginBottom=0;whiteSpace=wrap;html=1;fillColor=#d5e8d4;strokeColor=#82b366;" vertex="1" parent="1">
          <mxGeometry x="-550" y="510" width="160" height="60" as="geometry" />
        </mxCell>
        <mxCell id="uY5fngIF1_JkBCDy1Up1-21" value="" style="line;strokeWidth=1;fillColor=none;align=left;verticalAlign=middle;spacingTop=-1;spacingLeft=3;spacingRight=3;rotatable=0;labelPosition=right;points=[];portConstraint=eastwest;strokeColor=inherit;" vertex="1" parent="uY5fngIF1_JkBCDy1Up1-20">
          <mxGeometry y="26" width="160" height="8" as="geometry" />
        </mxCell>
        <mxCell id="uY5fngIF1_JkBCDy1Up1-22" value="+Six()" style="text;strokeColor=none;fillColor=none;align=left;verticalAlign=top;spacingLeft=4;spacingRight=4;overflow=hidden;rotatable=0;points=[[0,0.5],[1,0.5]];portConstraint=eastwest;whiteSpace=wrap;html=1;" vertex="1" parent="uY5fngIF1_JkBCDy1Up1-20">
          <mxGeometry y="34" width="160" height="26" as="geometry" />
        </mxCell>
        <mxCell id="uY5fngIF1_JkBCDy1Up1-62" style="edgeStyle=orthogonalEdgeStyle;rounded=0;orthogonalLoop=1;jettySize=auto;html=1;exitX=0.5;exitY=0;exitDx=0;exitDy=0;" edge="1" parent="1" source="uY5fngIF1_JkBCDy1Up1-23">
          <mxGeometry relative="1" as="geometry">
            <mxPoint x="-269.5" y="541" as="sourcePoint" />
            <mxPoint x="-530" y="430" as="targetPoint" />
            <Array as="points">
              <mxPoint x="-270" y="440" />
              <mxPoint x="-530" y="440" />
            </Array>
          </mxGeometry>
        </mxCell>
        <mxCell id="uY5fngIF1_JkBCDy1Up1-23" value="Sept" style="swimlane;fontStyle=1;align=center;verticalAlign=top;childLayout=stackLayout;horizontal=1;startSize=26;horizontalStack=0;resizeParent=1;resizeParentMax=0;resizeLast=0;collapsible=1;marginBottom=0;whiteSpace=wrap;html=1;fillColor=#d5e8d4;strokeColor=#82b366;" vertex="1" parent="1">
          <mxGeometry x="-350" y="510" width="160" height="60" as="geometry" />
        </mxCell>
        <mxCell id="uY5fngIF1_JkBCDy1Up1-24" value="" style="line;strokeWidth=1;fillColor=none;align=left;verticalAlign=middle;spacingTop=-1;spacingLeft=3;spacingRight=3;rotatable=0;labelPosition=right;points=[];portConstraint=eastwest;strokeColor=inherit;" vertex="1" parent="uY5fngIF1_JkBCDy1Up1-23">
          <mxGeometry y="26" width="160" height="8" as="geometry" />
        </mxCell>
        <mxCell id="uY5fngIF1_JkBCDy1Up1-25" value="+Sept()" style="text;strokeColor=none;fillColor=none;align=left;verticalAlign=top;spacingLeft=4;spacingRight=4;overflow=hidden;rotatable=0;points=[[0,0.5],[1,0.5]];portConstraint=eastwest;whiteSpace=wrap;html=1;" vertex="1" parent="uY5fngIF1_JkBCDy1Up1-23">
          <mxGeometry y="34" width="160" height="26" as="geometry" />
        </mxCell>
        <mxCell id="uY5fngIF1_JkBCDy1Up1-57" style="edgeStyle=orthogonalEdgeStyle;rounded=0;orthogonalLoop=1;jettySize=auto;html=1;exitX=0.5;exitY=0;exitDx=0;exitDy=0;entryX=0.363;entryY=1;entryDx=0;entryDy=0;entryPerimeter=0;" edge="1" parent="1" source="uY5fngIF1_JkBCDy1Up1-26" target="LyirubUt6gGEpComlYB7-5">
          <mxGeometry relative="1" as="geometry">
            <mxPoint x="-560" y="440" as="targetPoint" />
          </mxGeometry>
        </mxCell>
        <mxCell id="uY5fngIF1_JkBCDy1Up1-26" value="Huit" style="swimlane;fontStyle=1;align=center;verticalAlign=top;childLayout=stackLayout;horizontal=1;startSize=26;horizontalStack=0;resizeParent=1;resizeParentMax=0;resizeLast=0;collapsible=1;marginBottom=0;whiteSpace=wrap;html=1;fillColor=#d5e8d4;strokeColor=#82b366;" vertex="1" parent="1">
          <mxGeometry x="-640" y="610" width="160" height="60" as="geometry" />
        </mxCell>
        <mxCell id="uY5fngIF1_JkBCDy1Up1-27" value="" style="line;strokeWidth=1;fillColor=none;align=left;verticalAlign=middle;spacingTop=-1;spacingLeft=3;spacingRight=3;rotatable=0;labelPosition=right;points=[];portConstraint=eastwest;strokeColor=inherit;" vertex="1" parent="uY5fngIF1_JkBCDy1Up1-26">
          <mxGeometry y="26" width="160" height="8" as="geometry" />
        </mxCell>
        <mxCell id="uY5fngIF1_JkBCDy1Up1-28" value="+Huit()" style="text;strokeColor=none;fillColor=none;align=left;verticalAlign=top;spacingLeft=4;spacingRight=4;overflow=hidden;rotatable=0;points=[[0,0.5],[1,0.5]];portConstraint=eastwest;whiteSpace=wrap;html=1;" vertex="1" parent="uY5fngIF1_JkBCDy1Up1-26">
          <mxGeometry y="34" width="160" height="26" as="geometry" />
        </mxCell>
        <mxCell id="uY5fngIF1_JkBCDy1Up1-58" style="edgeStyle=orthogonalEdgeStyle;rounded=0;orthogonalLoop=1;jettySize=auto;html=1;" edge="1" parent="1" source="uY5fngIF1_JkBCDy1Up1-29" target="LyirubUt6gGEpComlYB7-5">
          <mxGeometry relative="1" as="geometry">
            <Array as="points">
              <mxPoint x="-360" y="440" />
              <mxPoint x="-529" y="440" />
            </Array>
          </mxGeometry>
        </mxCell>
        <mxCell id="uY5fngIF1_JkBCDy1Up1-29" value="Neuf" style="swimlane;fontStyle=1;align=center;verticalAlign=top;childLayout=stackLayout;horizontal=1;startSize=26;horizontalStack=0;resizeParent=1;resizeParentMax=0;resizeLast=0;collapsible=1;marginBottom=0;whiteSpace=wrap;html=1;fillColor=#d5e8d4;strokeColor=#82b366;" vertex="1" parent="1">
          <mxGeometry x="-440" y="615" width="160" height="60" as="geometry" />
        </mxCell>
        <mxCell id="uY5fngIF1_JkBCDy1Up1-30" value="" style="line;strokeWidth=1;fillColor=none;align=left;verticalAlign=middle;spacingTop=-1;spacingLeft=3;spacingRight=3;rotatable=0;labelPosition=right;points=[];portConstraint=eastwest;strokeColor=inherit;" vertex="1" parent="uY5fngIF1_JkBCDy1Up1-29">
          <mxGeometry y="26" width="160" height="8" as="geometry" />
        </mxCell>
        <mxCell id="uY5fngIF1_JkBCDy1Up1-31" value="+Neuf()" style="text;strokeColor=none;fillColor=none;align=left;verticalAlign=top;spacingLeft=4;spacingRight=4;overflow=hidden;rotatable=0;points=[[0,0.5],[1,0.5]];portConstraint=eastwest;whiteSpace=wrap;html=1;" vertex="1" parent="uY5fngIF1_JkBCDy1Up1-29">
          <mxGeometry y="34" width="160" height="26" as="geometry" />
        </mxCell>
        <mxCell id="uY5fngIF1_JkBCDy1Up1-56" style="edgeStyle=orthogonalEdgeStyle;rounded=0;orthogonalLoop=1;jettySize=auto;html=1;entryX=0;entryY=0.5;entryDx=0;entryDy=0;" edge="1" parent="1" source="uY5fngIF1_JkBCDy1Up1-32" target="LyirubUt6gGEpComlYB7-5">
          <mxGeometry relative="1" as="geometry">
            <Array as="points">
              <mxPoint x="-770" y="450" />
              <mxPoint x="-720" y="450" />
              <mxPoint x="-720" y="389" />
            </Array>
          </mxGeometry>
        </mxCell>
        <mxCell id="uY5fngIF1_JkBCDy1Up1-32" value="Dix" style="swimlane;fontStyle=1;align=center;verticalAlign=top;childLayout=stackLayout;horizontal=1;startSize=26;horizontalStack=0;resizeParent=1;resizeParentMax=0;resizeLast=0;collapsible=1;marginBottom=0;whiteSpace=wrap;html=1;fillColor=#d5e8d4;strokeColor=#82b366;" vertex="1" parent="1">
          <mxGeometry x="-850" y="610" width="160" height="60" as="geometry" />
        </mxCell>
        <mxCell id="uY5fngIF1_JkBCDy1Up1-33" value="" style="line;strokeWidth=1;fillColor=none;align=left;verticalAlign=middle;spacingTop=-1;spacingLeft=3;spacingRight=3;rotatable=0;labelPosition=right;points=[];portConstraint=eastwest;strokeColor=inherit;" vertex="1" parent="uY5fngIF1_JkBCDy1Up1-32">
          <mxGeometry y="26" width="160" height="8" as="geometry" />
        </mxCell>
        <mxCell id="uY5fngIF1_JkBCDy1Up1-34" value="+Dix()" style="text;strokeColor=none;fillColor=none;align=left;verticalAlign=top;spacingLeft=4;spacingRight=4;overflow=hidden;rotatable=0;points=[[0,0.5],[1,0.5]];portConstraint=eastwest;whiteSpace=wrap;html=1;" vertex="1" parent="uY5fngIF1_JkBCDy1Up1-32">
          <mxGeometry y="34" width="160" height="26" as="geometry" />
        </mxCell>
        <mxCell id="uY5fngIF1_JkBCDy1Up1-35" value="Valet" style="swimlane;fontStyle=1;align=center;verticalAlign=top;childLayout=stackLayout;horizontal=1;startSize=26;horizontalStack=0;resizeParent=1;resizeParentMax=0;resizeLast=0;collapsible=1;marginBottom=0;whiteSpace=wrap;html=1;fillColor=#d5e8d4;strokeColor=#82b366;" vertex="1" parent="1">
          <mxGeometry x="-600" y="150" width="160" height="60" as="geometry" />
        </mxCell>
        <mxCell id="uY5fngIF1_JkBCDy1Up1-36" value="" style="line;strokeWidth=1;fillColor=none;align=left;verticalAlign=middle;spacingTop=-1;spacingLeft=3;spacingRight=3;rotatable=0;labelPosition=right;points=[];portConstraint=eastwest;strokeColor=inherit;" vertex="1" parent="uY5fngIF1_JkBCDy1Up1-35">
          <mxGeometry y="26" width="160" height="8" as="geometry" />
        </mxCell>
        <mxCell id="uY5fngIF1_JkBCDy1Up1-37" value="+Valet()" style="text;strokeColor=none;fillColor=none;align=left;verticalAlign=top;spacingLeft=4;spacingRight=4;overflow=hidden;rotatable=0;points=[[0,0.5],[1,0.5]];portConstraint=eastwest;whiteSpace=wrap;html=1;" vertex="1" parent="uY5fngIF1_JkBCDy1Up1-35">
          <mxGeometry y="34" width="160" height="26" as="geometry" />
        </mxCell>
        <mxCell id="uY5fngIF1_JkBCDy1Up1-52" style="edgeStyle=orthogonalEdgeStyle;rounded=0;orthogonalLoop=1;jettySize=auto;html=1;entryX=0;entryY=0.5;entryDx=0;entryDy=0;" edge="1" parent="1" source="uY5fngIF1_JkBCDy1Up1-38" target="LyirubUt6gGEpComlYB7-3">
          <mxGeometry relative="1" as="geometry">
            <Array as="points">
              <mxPoint x="-880" y="240" />
              <mxPoint x="-720" y="240" />
              <mxPoint x="-720" y="318" />
            </Array>
          </mxGeometry>
        </mxCell>
        <mxCell id="uY5fngIF1_JkBCDy1Up1-38" value="Reine" style="swimlane;fontStyle=1;align=center;verticalAlign=top;childLayout=stackLayout;horizontal=1;startSize=26;horizontalStack=0;resizeParent=1;resizeParentMax=0;resizeLast=0;collapsible=1;marginBottom=0;whiteSpace=wrap;html=1;fillColor=#d5e8d4;strokeColor=#82b366;" vertex="1" parent="1">
          <mxGeometry x="-960" y="150" width="160" height="60" as="geometry" />
        </mxCell>
        <mxCell id="uY5fngIF1_JkBCDy1Up1-39" value="" style="line;strokeWidth=1;fillColor=none;align=left;verticalAlign=middle;spacingTop=-1;spacingLeft=3;spacingRight=3;rotatable=0;labelPosition=right;points=[];portConstraint=eastwest;strokeColor=inherit;" vertex="1" parent="uY5fngIF1_JkBCDy1Up1-38">
          <mxGeometry y="26" width="160" height="8" as="geometry" />
        </mxCell>
        <mxCell id="uY5fngIF1_JkBCDy1Up1-40" value="+Reine()" style="text;strokeColor=none;fillColor=none;align=left;verticalAlign=top;spacingLeft=4;spacingRight=4;overflow=hidden;rotatable=0;points=[[0,0.5],[1,0.5]];portConstraint=eastwest;whiteSpace=wrap;html=1;" vertex="1" parent="uY5fngIF1_JkBCDy1Up1-38">
          <mxGeometry y="34" width="160" height="26" as="geometry" />
        </mxCell>
        <mxCell id="uY5fngIF1_JkBCDy1Up1-54" style="edgeStyle=orthogonalEdgeStyle;rounded=0;orthogonalLoop=1;jettySize=auto;html=1;entryX=0;entryY=0.5;entryDx=0;entryDy=0;" edge="1" parent="1" source="uY5fngIF1_JkBCDy1Up1-42" target="LyirubUt6gGEpComlYB7-3">
          <mxGeometry relative="1" as="geometry">
            <Array as="points">
              <mxPoint x="-720" y="318" />
            </Array>
          </mxGeometry>
        </mxCell>
        <mxCell id="uY5fngIF1_JkBCDy1Up1-42" value="Roi" style="swimlane;fontStyle=1;align=center;verticalAlign=top;childLayout=stackLayout;horizontal=1;startSize=26;horizontalStack=0;resizeParent=1;resizeParentMax=0;resizeLast=0;collapsible=1;marginBottom=0;whiteSpace=wrap;html=1;fillColor=#d5e8d4;strokeColor=#82b366;" vertex="1" parent="1">
          <mxGeometry x="-780" y="150" width="160" height="60" as="geometry" />
        </mxCell>
        <mxCell id="uY5fngIF1_JkBCDy1Up1-43" value="" style="line;strokeWidth=1;fillColor=none;align=left;verticalAlign=middle;spacingTop=-1;spacingLeft=3;spacingRight=3;rotatable=0;labelPosition=right;points=[];portConstraint=eastwest;strokeColor=inherit;" vertex="1" parent="uY5fngIF1_JkBCDy1Up1-42">
          <mxGeometry y="26" width="160" height="8" as="geometry" />
        </mxCell>
        <mxCell id="uY5fngIF1_JkBCDy1Up1-44" value="+Roi()" style="text;strokeColor=none;fillColor=none;align=left;verticalAlign=top;spacingLeft=4;spacingRight=4;overflow=hidden;rotatable=0;points=[[0,0.5],[1,0.5]];portConstraint=eastwest;whiteSpace=wrap;html=1;" vertex="1" parent="uY5fngIF1_JkBCDy1Up1-42">
          <mxGeometry y="34" width="160" height="26" as="geometry" />
        </mxCell>
        <mxCell id="uY5fngIF1_JkBCDy1Up1-59" style="edgeStyle=orthogonalEdgeStyle;rounded=0;orthogonalLoop=1;jettySize=auto;html=1;" edge="1" parent="1" source="uY5fngIF1_JkBCDy1Up1-37" target="LyirubUt6gGEpComlYB7-2">
          <mxGeometry relative="1" as="geometry">
            <mxPoint x="-380" y="390" as="targetPoint" />
            <Array as="points">
              <mxPoint x="-520" y="250" />
              <mxPoint x="-520" y="250" />
            </Array>
          </mxGeometry>
        </mxCell>
        <mxCell id="uY5fngIF1_JkBCDy1Up1-61" style="edgeStyle=orthogonalEdgeStyle;rounded=0;orthogonalLoop=1;jettySize=auto;html=1;entryX=0.368;entryY=1.009;entryDx=0;entryDy=0;entryPerimeter=0;" edge="1" parent="1" source="uY5fngIF1_JkBCDy1Up1-20" target="LyirubUt6gGEpComlYB7-5">
          <mxGeometry relative="1" as="geometry" />
        </mxCell>
        <mxCell id="uY5fngIF1_JkBCDy1Up1-65" value="" style="endArrow=diamondThin;endFill=0;endSize=24;html=1;rounded=0;entryX=1;entryY=0.5;entryDx=0;entryDy=0;exitX=-0.009;exitY=0.983;exitDx=0;exitDy=0;exitPerimeter=0;" edge="1" parent="1" source="LyirubUt6gGEpComlYB7-19" target="LyirubUt6gGEpComlYB7-3">
          <mxGeometry width="160" relative="1" as="geometry">
            <mxPoint x="-290" y="330" as="sourcePoint" />
            <mxPoint x="-130" y="330" as="targetPoint" />
          </mxGeometry>
        </mxCell>
        <mxCell id="uY5fngIF1_JkBCDy1Up1-67" style="edgeStyle=orthogonalEdgeStyle;rounded=0;orthogonalLoop=1;jettySize=auto;html=1;entryX=1.002;entryY=0.24;entryDx=0;entryDy=0;entryPerimeter=0;" edge="1" parent="1" source="LyirubUt6gGEpComlYB7-6" target="LyirubUt6gGEpComlYB7-21">
          <mxGeometry relative="1" as="geometry" />
        </mxCell>
        <mxCell id="uY5fngIF1_JkBCDy1Up1-68" value="" style="endArrow=diamondThin;endFill=1;endSize=24;html=1;rounded=0;entryX=1;entryY=0.5;entryDx=0;entryDy=0;exitX=0;exitY=0.5;exitDx=0;exitDy=0;" edge="1" parent="1" source="LyirubUt6gGEpComlYB7-13" target="LyirubUt6gGEpComlYB7-25">
          <mxGeometry width="160" relative="1" as="geometry">
            <mxPoint x="280" y="930" as="sourcePoint" />
            <mxPoint x="440" y="930" as="targetPoint" />
          </mxGeometry>
        </mxCell>
        <mxCell id="uY5fngIF1_JkBCDy1Up1-69" value="" style="endArrow=diamondThin;endFill=1;endSize=24;html=1;rounded=0;entryX=0.651;entryY=1.007;entryDx=0;entryDy=0;entryPerimeter=0;exitX=0.5;exitY=0;exitDx=0;exitDy=0;" edge="1" parent="1" source="LyirubUt6gGEpComlYB7-22" target="LyirubUt6gGEpComlYB7-21">
          <mxGeometry width="160" relative="1" as="geometry">
            <mxPoint x="-160" y="690" as="sourcePoint" />
            <mxPoint y="690" as="targetPoint" />
          </mxGeometry>
        </mxCell>
      </root>
    </mxGraphModel>
  </diagram>
</mxfile>
